<svg viewBox="0 0 119 99" xmlns="http://www.w3.org/2000/svg" fill-rule="evenodd" clip-rule="evenodd" stroke-linejoin="round" stroke-miterlimit="2"><path d="M93.965 90.19c.155-.09.315-.17.48-.24.165-.07.13 0 .15.08a17.344 17.344 0 01-7.57 4.48c-1.952.54-3.99.686-6 .43a19.186 19.186 0 01-8.46-3.3c-1.55-1-3.08-2.06-4.61-3.1a7.564 7.564 0 00-5.74-1.08c-1.11.12-.27.65-.1.73a44.923 44.923 0 017.74 4.82c1.64 1.2 4.56 4 4.56 4l-2.19 1.87s-1.67-1.87-2.39-2.6a40.973 40.973 0 00-10-7.74.763.763 0 00-1 0 41.148 41.148 0 00-10 7.74c-.72.73-2.39 2.6-2.39 2.6l-2.19-1.87s2.92-2.82 4.56-4a44.923 44.923 0 017.74-4.82c.17-.08 1-.61-.09-.73a7.571 7.571 0 00-5.75 1.08c-1.53 1-3.06 2.08-4.61 3.1a19.13 19.13 0 01-8.46 3.3c-2.009.256-4.048.11-6-.43a17.457 17.457 0 01-7.58-4.49.237.237 0 01.16-.07c.165.07.325.15.48.24a15.115 15.115 0 0010.05 1.17 34.015 34.015 0 006.78-2.35c1.58-.67 3.14-1.42 4.77-1.95a22.329 22.329 0 0112.78-.29h.44a22.329 22.329 0 0112.78.29c1.63.53 3.19 1.28 4.77 1.95a34.015 34.015 0 006.78 2.35c3.384.776 6.935.363 10.05-1.17m10.6-9.43a13.683 13.683 0 01-4.54 2.4 26.154 26.154 0 01-7.15 1.07c-3.119.1-6.23.37-9.32.81-.19 0-.28-.06-.22-.12a.085.085 0 01.05 0 11.513 11.513 0 006.08-5.88c1-1.87 2.6-5.53 3-6.13v-.15c-.21.06-3.26 2.67-4.65 3.95-1.72 1.6-3.34 3.31-5.07 4.91a18.9 18.9 0 01-8 4.06l-.11.05a.903.903 0 00-.07.13h.07c1.08.25 4.22.93 5.84 1.36a39.304 39.304 0 007.52 1.4 18.072 18.072 0 0016.77-7.84c3.717-5.492 0 0 0 0a.249.249 0 00-.21 0m9.47-14.51a24.616 24.616 0 01-5.43 4.74 35.03 35.03 0 01-5.57 3 29.384 29.384 0 00-6.85 4l-.4.3c-.07.06-.15 0-.06-.13s3.26-3.36 4.21-10.21c.33-2.4.38-5 1.15-7.28a.219.219 0 00-.05-.19 31.506 31.506 0 00-5.16 9.36c-.64 1.83-1.25 3.67-1.91 5.49a17.334 17.334 0 01-4 6.66l-.17.18a.405.405 0 000 .11l.63-.11c2.11-.44 4.21-.94 6.34-1.3a20.694 20.694 0 009.52-4.05 22.602 22.602 0 006.89-8.06c.432-.838.784-1.715 1.05-2.62a.212.212 0 00-.19 0m4.14-16.31a19.655 19.655 0 01-5 7.8 70.468 70.468 0 00-7.19 8.18c-.05.07-.17 0-.13-.09a21.238 21.238 0 00.67-9.2c-.41-2.6-1.55-5.43-1.83-8.61a.252.252 0 00-.13-.14c-.06-.028 0 .06-.11.3a29.486 29.486 0 00-1.34 6.32c-.14 2.59.35 5.92.14 8.59-.25 3.09-.46 6.14-1.87 8.93v.26c1.13-.73 4.36-2.63 6.49-4.06a24.804 24.804 0 006.85-6.54 19.618 19.618 0 003.57-11.38 3.116 3.116 0 000-.41c-.009-.137-.15.07-.16.09m-6.85 1.76s-.05 0-.06.06c-.01.06-.1-.06-.1-.08.1-.87.12-1.747.06-2.62-.22-3-2.06-5.56-3.67-8.1a38.828 38.828 0 01-2.92-5.19.303.303 0 00-.17-.08c0 .28 0 1.17.1 1.75a58.455 58.455 0 003.28 12.77 17.712 17.712 0 011.15 8.08c0 .24 0 .27.06.34 1-1.42 2.9-3.41 4.08-4.84 1.18-1.43 7.71-8.89 4.54-19.11a6.903 6.903 0 00-.5-1.26c-.208-.403-.14.13-.14.16 0 7.35-3.54 10.5-5 15.53-.29 1-.51 1.85-.7 2.59m0-15.18s-.35-1-.69-1.79c-.14-.36-.29-.69-.41-.93-1.13-2.25-2.6-3.41-4.48-4.95a23.314 23.314 0 01-3.74-4.32.227.227 0 00-.17 0h-.08c.06.31 1.08 3.55 1.73 5.06a29.047 29.047 0 003.88 5.88l.31.41a32.79 32.79 0 014.25 8.1c0 .06.15.11.15.09.2-.75 1.12-3.66 1.81-5.62a54.682 54.682 0 001.59-6c.69-4.83-.9-11.11-3.72-14.54-.05 0-.09.15-.08.17l.14.45c.06.21.12.42.17.64.582 2.648.623 5.386.12 8.05a35.41 35.41 0 00-.59 6.4c0 .36.24 3 .21 3.11-.03.11-.15 0-.16 0m-8.69-27.24a9.075 9.075 0 012.1 3c.78 1.82 1 4.57 1.51 6.64.31 1.27.5 2.16.94 3.59 0 .13-.09.18-.16.06-1.46-2-3.26-3.21-5.83-4.83a13.431 13.431 0 01-3.8-3.41c-.19-.26-.39-.51-.58-.76 0 0-.14-.07-.17-.05a1.71 1.71 0 000 .32 13.751 13.751 0 003.34 6.54c1.37 1.3 2.91 2.46 4.37 3.67a37.602 37.602 0 015.12 5.32c1.528 1.937.12.07.12 0 0-.38-.05-1-.05-1.7 0-1.6.07-3.73.14-5.2 0-.59.05-1.19.05-1.78a12.841 12.841 0 00-.95-5.21 12.12 12.12 0 00-5.71-6.24l-.5-.19a.257.257 0 000 .2m-11.16-5.15a25.157 25.157 0 014 4.74 23.031 23.031 0 003.76 4.65c1 1 3.94 3.3 4.68 3.87h.06c-.15-.84-1.48-7-5.35-10.09a19.346 19.346 0 00-7.53-3.64.234.234 0 000 .18c.13.12.23.19.35.31m-60.8 84.5a39.39 39.39 0 007.53-1.4c1.61-.43 4.75-1.11 5.84-1.36h.06a.903.903 0 00-.07-.13l-.11-.05a18.9 18.9 0 01-8-4.06c-1.72-1.6-3.34-3.31-5.07-4.91-1.38-1.28-4.44-3.89-4.65-4a.244.244 0 000 .16c.45.6 2.06 4.26 3 6.13a11.493 11.493 0 006.09 5.88c.07.06 0 .15-.22.12h-.05a85.039 85.039 0 00-9.32-.81 26.23 26.23 0 01-7.15-1.07 13.758 13.758 0 01-4.54-2.4.249.249 0 00-.21 0 18.021 18.021 0 0016.76 7.84m-2.41-6.37l.62.11a.255.255 0 000-.11l-.17-.18a17.45 17.45 0 01-4-6.66c-.66-1.82-1.27-3.66-1.91-5.49a31.697 31.697 0 00-5.15-9.36c-2.234-2.806 0 0 0 0a.21.21 0 000 .18c.78 2.31.82 4.89 1.16 7.29.94 6.85 4.1 10.08 4.21 10.21.11.13 0 .19-.07.13l-.4-.3a29.376 29.376 0 00-6.84-4 35.03 35.03 0 01-5.57-3 24.35 24.35 0 01-5.43-4.74.24.24 0 00-.2 0c.27.905.625 1.782 1.06 2.62a22.48 22.48 0 006.88 8.06 20.734 20.734 0 009.53 4.05c2.12.36 4.22.87 6.34 1.3m-17.5-14.28c2.13 1.43 5.36 3.33 6.49 4.06 1.13.73.08-.14.05-.21-.03-.07 0 0 0-.05-1.42-2.79-1.63-5.84-1.88-8.93-.21-2.67.28-6 .14-8.59a28.331 28.331 0 00-1.34-6.32.976.976 0 00-.11-.3c-.053-.093-.11.1-.13.14-.02.04 0 0 0 0-.28 3.18-1.42 6-1.84 8.61a21.238 21.238 0 00.67 9.2c.05.13-.08.16-.12.09a71.448 71.448 0 00-7.2-8.18 19.88 19.88 0 01-5-7.8c-1.029-2.957-.13-.11-.16-.09a3.505 3.505 0 000 .41 19.534 19.534 0 003.57 11.42 24.946 24.946 0 006.85 6.54m-1.12-9.55s.1-.1.06-.34a17.863 17.863 0 011.15-8.08 57.365 57.365 0 003.3-12.73c.065-.581.1-1.165.1-1.75a.303.303 0 00-.17.08 38.875 38.875 0 01-2.91 5.19c-1.61 2.54-3.45 5.06-3.68 8.1-.06.873-.039 1.75.06 2.62.1.87 0 .1-.1.08a.1.1 0 01-.05-.06c-.2-.74-.42-1.63-.7-2.59-1.48-5-5-8.18-5-15.53 0 0-.1-.16-.15-.16a8.134 8.134 0 00-.49 1.26c-3.17 10.22 3.26 17.55 4.54 19.11 1.28 1.56 3.09 3.42 4.07 4.84m-4.6-20.31c.68 2 1.6 4.87 1.8 5.62 0 0 .13 0 .15-.09a32.519 32.519 0 014.26-8.1l.3-.41a28.647 28.647 0 003.88-5.88 51.209 51.209 0 001.73-5.06c.488-1.716 0 0-.08 0a.35.35 0 00-.17 0 23.681 23.681 0 01-3.92 4.36c-1.88 1.54-3.34 2.7-4.48 4.95-.12.24-.26.57-.41.92-.34.81-.68 1.78-.69 1.8-.01.02-.12.15-.16 0-.04-.15.19-2.75.21-3.11a34.523 34.523 0 00-.59-6.4 19.989 19.989 0 01.13-8.05c0-.22.11-.43.17-.64.06-.21.08-.29.13-.45a.252.252 0 00-.07-.17c-2.83 3.43-4.42 9.71-3.73 14.54a54.061 54.061 0 001.6 6m3.84-15.71c.07 1.47.14 3.6.15 5.2v1.7c0 .38.11 0 .11 0a36.835 36.835 0 015.11-5.32c1.46-1.21 3-2.37 4.37-3.67a13.751 13.751 0 003.34-6.54 2.03 2.03 0 00.05-.32.228.228 0 00-.17.05c-.2.25-.39.5-.58.76a13.561 13.561 0 01-3.8 3.41c-2.58 1.62-4.38 2.85-5.84 4.83-.07.12-.2.07-.16-.06.44-1.43.63-2.32.94-3.59.5-2.07.73-4.82 1.51-6.64a9.216 9.216 0 012.1-3c.894-.85 0 0 0 0a.399.399 0 000-.2 4.589 4.589 0 00-.51.19 12.154 12.154 0 00-5.68 6.2 12.509 12.509 0 00-1 5.21v1.78m5.72-5.07h.07c.73-.57 3.67-2.86 4.68-3.87a23.739 23.739 0 003.76-4.65 25.089 25.089 0 014-4.74l.35-.31s.05-.13 0-.18a19.416 19.416 0 00-7.53 3.64c-3.87 3.06-5.2 9.25-5.35 10.09m43.62 33.7c.31-.46-.45-.74-.65.05s.35.41.65-.05m8.26-19.09c-.3-.15-1.5 1.32-1.31 1.56.533-.431.978-.96 1.31-1.56m.26-.26c.18.1 1-.34.83-.45-.17-.11-1.09-.56-1.11-.29 0 .43.1.65.28.74m14.56 13.48c.41-.09.36-.75 0-.73-.36.02-.79.56-.68.57.28 0 .48.21.7.16m-5.29-14.45c-.33 0-.41.36-.1.52.272.055.556.012.8-.12.21-.14.46-.31.42-.64-.04-.33-.5-.77-.25-1 .25-.23.53.14.79 0s.29-.3.29-.57c0-.27-.13-.86-.56-.86-.43 0-.88.86-.91.91a1 1 0 000 .73c.19.45.12 1-.49 1m7.14.05c0 .2.56 1.58.62 2 .06.42.18 1.5.48 1.39.3-.11.17-.77.13-1-.12-.799-.31-1.585-.57-2.35-.15-.47-.81-2-1-1.94-.19.06.33 1.11.41 1.46a1.41 1.41 0 010 .51m-3.77-18.37c.35.14.35-.52-.25-1s-1.39-.25-1.18 0c.432.393.913.729 1.43 1m-16.25-4.67c-.71-.45-.12-1.08-.69-1.51a1.792 1.792 0 00-1.78.35c-.48.62.62.42 1 .59.38.17 1.4 1 1.57.85.17-.15 0-.2-.11-.28m4.3-2.16c-.95-.44-4.54-.42-4.45.52.09.94 2.07.05 2.59 0s2.7-.09 1.86-.52m-9.87 41.83c-.18-.09-.58.08-.63-.1-.05-.18-.35-.15-.28 0 .07.15-.09.34.07.54a.713.713 0 00.89 0 .341.341 0 000-.46m-2-7.24c.3 0 .29-.23.46-.22.17.01 0 .23.33.23s.61-.77-.35-.77c-.78 0-.67.75-.44.76m1.24.79c-.59-.15-.47.19-.84.23-.6.06-.06-.45-.36-.69-.13-.1-.49.42-.51.74 0 .16 0 .69.23.7.23.01 1.61.17 2.06.28.45.11 0-1.12-.58-1.26m-6.63 7.15c.18 0 .31-.65.2-1-.11-.35-.7-.08-.75.07-.05.15.37.9.55.9m-8.7-.06c0-.28 0-1.1-.19-1.26-.19-.16-.17.14-.31.12-.14-.02-.1-.39-.24-.39-.14 0 .05.65.2 1 .15.35.51 1 .54.5m-.21-2a8.105 8.105 0 00.3-2c-.05-.52-.32-1-.39-1s0 .36.06.86a7.369 7.369 0 01-.33 1.63c0 .23.22.76.36.46m-11.2 24.49a41.294 41.294 0 01-12.1-29.2C18.084 18.634 36.717 0 59.364 0c22.644 0 41.28 18.634 41.28 41.28 0 22.645-18.635 41.279-41.28 41.28a41.018 41.018 0 01-29.18-12.08m-10.28-28.29a39.17 39.17 0 0010.93 26.42l4.49-4.48a32.843 32.843 0 01-2.48-2.93 2.354 2.354 0 01-.95-.64c-.38-.47-.58-1.17-.76-1.17-.18 0 0 .44-.42.5-.56.08-1.34-1.3-1.65-1.8-.31-.5-1-.6-1.25-1.15-.08-.16-.28-.66-.47-.36-.3.49-1.36-1.08-1.63-1-.27.08 0 .43-.19.57-.19.14-1.18-1.2-1.52-1.05-.34.15-.38.33-.4.72-.02.39.49 1.45.31 1.53-.18.08-1.53-3.16-1.25-3.3.28-.14.13.14.31 0s-.13-.34-.21-.69c-.08-.35-.41-.38-.44-.79-.03-.41.55-.27.55-.47a.663.663 0 01.21-.56c.19-.17.64 0 .73-.57.09-.57.33 0 .38.33.05.33 1.14.53 1.19.24.05-.29-.43-.18-.43-.34 0-.31.59 0 1 0 .18 0 .5-.27.9-.06a3 3 0 001 .38 32.908 32.908 0 01-1.63-9.42h-6.32m35.95-9.11c.3-.53 1-1.13 1-1 0 .13-.42.48-.65.89a8.855 8.855 0 012.27-.53v-6.33a15.23 15.23 0 00-9.27 3.85l4.47 4.47a8.846 8.846 0 011.67-1.09l.48-.22m-3.35 10.32v-.43a.357.357 0 010-.08.22.22 0 01.22-.07c.16 0 .36.12.55.13a.43.43 0 00.39-.18c.052-.073.1-.15.14-.23a.617.617 0 00.06-.21.18.18 0 000-.08c0-.07-.13-.09-.31 0h-.11a.81.81 0 01-.22 0h-.1a.372.372 0 01-.25-.15.557.557 0 01-.06-.11.544.544 0 00-.07-.13 1.187 1.187 0 00-.45-.35 1.3 1.3 0 01-.25-.18.495.495 0 01-.13-.12l-.09-.1-.06-.06h-.38a.74.74 0 00-.65.22l-.11.11-.1.13a.71.71 0 00-.1.17c-.08.137-.147.281-.2.43-.51 1.34-1.11.93-1 1.41 0 .06.15.1.36.11h1.48l.13-.05.21-.08a.74.74 0 01.19-.05.641.641 0 01.68.24c.092.157.153.33.18.51V44a.272.272 0 000-.09v-.1m-12 10.46c.28.59.76 1.08.77 1.78.01.123.01.247 0 .37.32.4.66.8 1 1.18l4.48-4.48a17.006 17.006 0 01-4.14-8.48.282.282 0 01-.33-.12c-.09-.15 0-.31.24-.47-.07-.48-.11-1-.14-1.45h-3c0 .48.22 1.16-.09 1.4s-.62 0-.86 0c-.57.08-.7.77-.55 1.24.14.278.202.589.18.9 0 .31-.22.56.29.83.51.27 1.21 1.19 1.15 1.36-.06.17-.54-.2-.57.18-.03.38.68-.06.64.73-.018.437.057.874.22 1.28.34.557.536 1.189.57 1.84a3.995 3.995 0 00.14 1.88m-3.94-7.58c.64.23 1.86-.29 1-1.29-.36-.42.25-1.62.34-1.85.09-.23.65-.57.82-1h-2.65c.048 1.376.218 2.745.51 4.09m.5 16.1c-.47-.3-.91-.49-1.18-.33h-.06c.24.27.48.54.73.8l.51-.5m6.72-27.9a17.085 17.085 0 012.95-4.56l-4.42-4.74a23.235 23.235 0 00-6.21 15h3.12c.53-.84.35-1.48.53-2 .185-.461.42-.9.7-1.31.23-.37.49-.79 1-.79 1 0 1.28-.54 1.92-.84.64-.3 1.79-.47 1.66-.81-.13-.34-2.38.67-2.43.49-.05-.18.72-.27 1.06-.58a.98.98 0 01.2-.13m4.2-3.31a14.92 14.92 0 00-2.06 2.92l.19-.09a2.81 2.81 0 012.2-.17 9.436 9.436 0 011.58 1.11c.14.1.2-.1.85-.19.28 0 .34.23.73.28.133.014.267.014.4 0l-3.89-3.89m-5.5 8a2.75 2.75 0 00-.94-.26 1.312 1.312 0 00-1.26.59 1.27 1.27 0 00-.18.94h2.26c0-.43.06-.85.12-1.27m1.9 5.07a15.324 15.324 0 003.6 7.23l4.47-4.47a8.967 8.967 0 01-1-1.43 1.186 1.186 0 00-.17.24c-.09.2 0 .87-.25 1.15-.25.28-1.31-.81-1.62-.91a.463.463 0 00-.58.444v.006c.05.35 0 .48-.17.51-.17.03-.89-.48-.56-.61.33-.13-.1-.48-.27-.61s-.74 0-.95-.31a1.93 1.93 0 00-.79-.59c-.09 0-.53-.21-.82-.06-.29.15-.47-.12-.64-.29l-.29-.3m3.59-15.56a17.006 17.006 0 0110.52-4.36V18a23.217 23.217 0 00-15 6.21l4.46 4.47m-5.71-5.71a25.002 25.002 0 0116.23-6.74V9.92a31.33 31.33 0 00-20.66 8.56l4.46 4.47m-5.71-3.22a31.275 31.275 0 00-8.58 20.75h6.31a25.002 25.002 0 016.74-16.23l-4.47-4.52zm-8.58 22.45c.083 3.196.66 6.36 1.71 9.38h.1a4.012 4.012 0 001.91-.32c.62-.48 0-2.2.43-2.91.48-.89 1.68-3 2-3 .32 0 .31.22.47.26a25.507 25.507 0 01-.35-3.41h-6.27zm30.52 32.3a33.08 33.08 0 01-21.94-9.1l-4.48 4.48a39.212 39.212 0 0026.42 10.93v-6.31zm0-8.08a24.865 24.865 0 01-15.15-5.77c.088.108.168.221.24.34.29.5 1.31 1.52.66 1.93-.65.41-1.42.11-1.92.1-.5-.01-1.34.81-1.8.89a2.341 2.341 0 01-1.5-.16 3.198 3.198 0 01-.51-.31l-.71.71a31.29 31.29 0 0020.69 8.59V66.4zm0-2.22a6.529 6.529 0 01-2.55-.17c-.66-.46-1.45-.91-1.54-1.27-.16-.63-1-1.1-1-1.69 0-.59.91-.88.67-1.54s.32-1.2 1.27-1.66a17.083 17.083 0 01-7.34-3.89l-4.5 4.52a23.104 23.104 0 0015 6.2l-.01-.5zm-.27-8.23c.55.41 1.2-.13 1.64-.21.67-.11 1.38-.3 2-.36.62-.06 0 .87.36.91.36.04 2.41.38 2.55-.06.14-.44.14-.52.55-.61a4.402 4.402 0 002.07-.66c.24-.18.74-.24.88-.52s-.1-1.55-.58-1.34c-.23.1-.52.43-1 .68-.48.25-.77.33-1.09-.1-.32-.43.17-.69.41-.95.37-.41.71-.82 1.12-.82.16 0 1-.42.94-.81-.06-.39-1.09 0-1.32-.16-.23-.16 0-.51-.12-.56-.12-.05-.49.44-.2.71.14.14-.24.54-.67.26-.43-.28-.42 1-.39 1.2.03.2.49.16.18.56s-.41.1-.64.3c-.23.2-.33.33 0 .67s-.15.79-.25.3c-.07-.32-.74-.22-.87-.59s-.69-.33-1.35-.68c-.51-.26-.45.51.41.71.86.2.7.25.49.71-.21.46-.14-.29-1-.52-.56-.15-.58-.45-1-.44-.42.01-.3.43-.77.32-.47-.11-.41.39-.74.53s-.38.89-.78 1.09c-.61.3-1.85.08-1.79-.52.06-.6.08-1.05.43-1.26.35-.21.81.35 1.23.16.42-.19.34-.67.07-1-.08-.1-.41-.26-.4-.37.01-.11.64-.18 1-.39.298-.286.576-.594.83-.92.17-.14.52-.17.55-.3.03-.13-.24-.45-.22-.65.02-.2.1-.35.25-.34.15.01.34.46.24.56-.1.1.08.32.29.24.21-.08 1-.38 1.17-.43.17-.05-.08-.75 0-.87s.18 0 .29-.07c.11-.07-.23-.23-.18-.47.05-.24.82-.39.6-.53-.22-.14-.5.26-.67.34-.39.17-.57-.25-.56-.57 0-.16.22-.71 0-.82-.22-.11-.3.51-.34.64-.16.32-.137.702.06 1 .15.28.07 1.25-.22 1.36-.29.11-.46-.5-.61-.74a.151.151 0 00-.16-.08v.05l-.1.16s-.07.14-.13.31a.3.3 0 01-.22.2 8.36 8.36 0 01-1 .06h-.38c.042.189.102.373.18.55.18.33.51.6.45.85s-1.08.46-1.16.28c-.08-.18.26-.67.23-.87 0-.37-.24-.59-.22-.85a8.934 8.934 0 01-4.78-2l-4.47 4.47a15.32 15.32 0 008.05 3.73c.43-.27.61-.74.95-.49m5.76 10a25.244 25.244 0 01-3.73.41v6.32c2.508-.068 5-.438 7.42-1.1-.5-.42-.72-1.1-1.33-1.31-1.05-.36-1.33-1-.77-1.95.31-.5.19-.7-.17-1.24a2.998 2.998 0 00-1.42-1.13m-3.73-1.35a23.055 23.055 0 003-.32 1 1 0 00-.92-.16c-1 .28-.68-.53-2.11-.33v.81m0 16.15a39.191 39.191 0 0026.42-10.93l-4.48-4.48a33.455 33.455 0 01-7.8 5.51 15.23 15.23 0 01-3 1.63 2.936 2.936 0 01-1.18.38.66.66 0 01-.36-.11 33.317 33.317 0 01-9.63 1.69v6.31m17.57-56.68a.357.357 0 010 .08.119.119 0 01-.06.08 24.822 24.822 0 012.8 3.64c.1-.12.18-.23.31-.08.13.15-.23.72.43.6.4-.08.31.43 0 .71.21.36.4.74.59 1.11.23.11.41.23.44.39.154.464.274.939.36 1.42.321.797.598 1.612.83 2.44.33-.27.69-.12.73.34.018.482-.089.961-.31 1.39.288 1.383.458 2.788.51 4.2h6.32a31.742 31.742 0 00-2.68-11.85c-.12.1-.29.11-.5.38-.21.27-.84-.1-1.12-.45-.53-.66-1.78-2.49-2.34-2.59-.56-.1-.82-.68-1.31-.78-.49-.1-1.11-.38-1.19-.9v-.01a.833.833 0 00-.82-.83 2.398 2.398 0 01-1.49-.8l-1.51 1.51m3.85 36.83a2.56 2.56 0 01.17 1.6l.35.34a31.338 31.338 0 008.59-20.69h-6.32a25.055 25.055 0 01-6.73 16.23l2.27 2.28a.44.44 0 00.05-.09c.123-.418.171-.855.14-1.29 0-.24.89-.18 1 .21.147.481.324.952.53 1.41m-5.21 4.34c-.27.5.79.72.59 1.2-.2.48-1 1.12-.87 1.36a31.166 31.166 0 004.76-3.71l-4.46-4.46c-.307.293-.64.573-1 .84-.08.52 0 .92.62 1.11.62.19 1.81.9 1.57 1.57s-.93 1.49-1.25 2.09m2.7-25.9c.35.49-.82.35-1.07 1a.347.347 0 01-.05.08h4.66c0-.67-.09-1.33-.17-2l-.1.2c-.35.73-.41.29-.38 0 .057-.411.172-.811.34-1.19l-.12-.64a1.627 1.627 0 01-.66.5c-.2.1-.4.58-.47.77-.07.19-.61-.05-1 .15-.73.35-1.49.41-.95 1.17m.87-8.93a23.838 23.838 0 00-3.55-5l-4.47 4.47a17.349 17.349 0 012 2.77 2.57 2.57 0 011.7.89c.33.42 1.27 1.26 1.13 1.64-.14.38.11.52.32.67.21.15.56.22.74 0 .33-.42.38-1 .82-1.34.44-.34 1.63.83 1.63 1.06 0 .23-.29.29-.37.7-.11.57-.59 1.24 0 1.43.8.28.9 0 1.29-.61.17-.26.14-.68.33-.93.131-.141.287-.257.46-.34a22.403 22.403 0 00-1.2-3.63.928.928 0 00-.42-.27c-.29-.1-.13-.35-.51-.47s-.6-.26-.64-1c-.04-.74.52.2.65.09.13-.11.06-.06.09-.1m-7.54 3.08a14.904 14.904 0 00-1.43-2 1.425 1.425 0 01-.54-.1l-1.47 1.47c.28.08.59 0 .94.13s.2-1.09.8-1c.6.09.77.51.27.7-.5.19.1.47-.39.64-.49.17.36.55.35.73-.01.18-.61.33.3.61.91.28 0-.76.14-.91.14-.15.65.28.79.08s.13-.2.24-.35m-1.73 21.94c-.32-.1-2.07-.77-2.06-.53.01.24-.3.07-.4.17a13.745 13.745 0 002.89 1.38 3.621 3.621 0 001.74.06c.62-.12.8.16 1.09.15.29-.01.69-.58.93-.92.64-.91.52-1 .69-1.18.17-.18.84 1.22.76 2.1 0 .14 0 .27-.05.4l.07.06a23.254 23.254 0 006.22-15h-4.79c.282.399.536.816.76 1.25.24.5.38 1.29.79 1.33.66.06 1.34.61 1.35 1.07 0 .95-2.92 1.18-3.31 1.06-.39-.12-.55-.12-.57.39-.02.51-1.07.59-1.49.94-.42.35-.51 1.1-.82 1.6a11.5 11.5 0 01-1.58 1.54c-.71.5-2.06.53-1.44.86.44.23 1.43.31 1.31.08-.12-.23.07-.29.24-.07.17.22.6-.16.59-.46-.01-.3-.07-.75.19-.76.42 0 .87-.51 1.09-.46.22.05.56.58.32 2.22a8.128 8.128 0 01-1.34 3.28c-.33.55-.67.13-1.12-.1a14.028 14.028 0 00-2-.48m17.03 13.15a39.17 39.17 0 0010.93-26.42h-6.31a33.08 33.08 0 01-9.1 21.94l4.48 4.48m10.94-28.13a39.209 39.209 0 00-10.94-26.47l-4.68 4.68a15.463 15.463 0 002.37 2.84c.47.48 1 .94 1.37 1.36.37.42 2.95 3.58 2.46 4l-.11.1a33.484 33.484 0 013.21 13.4h6.31M60.235 8.1a33.005 33.005 0 0114.87 3.95 4.779 4.779 0 001.12-.25c.57-.26 1.67.33 2.21.64s.86.7 1.39 1a3.718 3.718 0 011.62 2.08c.2.89.76.83.48 1.19-.14.18.07.24.34.4l4.39-4.38a39.202 39.202 0 00-26.42-10.94V8.1zm0 8.08a25.003 25.003 0 0114.29 5.11c-.45-.6-.9-1.22-1.12-1.44-.39-.41-1.83-.92-1.69-1.16.14-.24 1.44.8 1.66.61.22-.19-.65-1.4-.58-1.44a5.994 5.994 0 011.72 1.93c.22.33.82.17 1.28.49.46.32.43.74.77 1 .06.05.78.47.36.42-.12 0-.3-.27-.44-.14s.05.52.3 1l2.09-2.1c-.3-.62-.9-1.43-1.32-1.53-.42-.1-.7.25-1 .5-.3.25-.66.33-.71.16a8.405 8.405 0 010-.84c0-.24-.22-.43-.28-.66-.15-.55.07-1.16-.27-1.52a9.897 9.897 0 01-.89-1.47 4.653 4.653 0 01-.91-1.93 31.397 31.397 0 00-13.3-3.34l.04 6.35zm0 8.09a16.932 16.932 0 0110.52 4.36l4.46-4.47a23.217 23.217 0 00-15-6.21l.02 6.32zm0 8.09c.601.06 1.194.181 1.77.36.15-.37.53-.55.83-.76.3-.21.64-.53.58.14-.002.39-.183.759-.49 1 .623.265 1.214.6 1.76 1l.35.28.61-.61a.138.138 0 010-.07c0-.34.5-.75 1.08-1l2-2h-.15c-.26 0-.64.52-.9.37-.26-.15.87-1.2 1.39-1l.23.09.25-.25a15.23 15.23 0 00-9.27-3.85l-.04 6.3zm-.74 1.73h-.14c-.729 0-1.453.108-2.15.32-.09.1-.15.19-.1.26.17.25.7-.28.77.21.07.49-.59.1-.53.36.06.26.49.12.5.41a1.432 1.432 0 01-.48.92c-.28.18-1.79.38-1.94.73a2.56 2.56 0 01-.5.84c-.25.27-1.47 1-1.47 1.18 0 .44.58-.12.75-.3.17-.18.61-.27 1-.49.39-.22.74.76.16.8-.36 0-.66 1-1.22.84-.14-.05-.55-.3-.63 0-.08.3.83.31 1.13.51.74.49-.57.45-.78.59-.21.14-.1.41.18.3.28-.11.64-.4.82.06.22.63-1 2.92-1.4 2.68-.2-.14-.41.05-.6.13.252.515.564.999.93 1.44.25-.4.64-1 .81-1 .17 0 .15-.19.24-.35.09-.16.39 0 .41-.27.02-.27.71-.66.79-1.06 0-.21-.22-.43-.11-.6a.547.547 0 01.36-.3c.14-.05.47.28.57.14.1-.14.59 0 1 .2.17.11.5 0 .7.27.2.27 0 .44 0 .52 0 .08.17 0 .25 0 .08 0-.74.68-.64 1 .1.32-.75 1.69-1 1.91-.25.22-.86 0-1.07 0-.21 0-.27.26-.62.17a1.488 1.488 0 00-.89.19 7.146 7.146 0 004.73 1.79c.385-.003.77-.037 1.15-.1.206-.297.333-.641.37-1-.003-.221.031-.44.1-.65.1-.16.68-.88.92-.87.24.01.34.19.64.1.57-.18.93 0 .94.22.01.22-.73.24-.7.44.03.2.55.34.73.14a.932.932 0 00.19-.95c-.23-.29-.22-.41.11-.3.33.11.2-.73.4-1s-.49-.13-.8-.08c-.31.05-.55-.59-.55-.81 0-.22.56.56.85.58a.802.802 0 00.71-.64c0-.28-.62-.31-.72-.65-.05-.18.51 0 .47-.18-.04-.18.06-.54-.3-.69-.36-.15-.67-1.28-1-1.35-.33-.07-.46.27-.61.39-.15.12-.4-.09-.27-.21a2.61 2.61 0 00.69-.81c.14-.48.76 0 .65-.64-.11-.64-.73-.58-.45-.93a.5.5 0 00-.52-.81c-.27.05-.56-.4-.59-.78 0-.21-.63-.18-.6-.41.05-.45-.64-.5-1.06-.47a2.436 2.436 0 01-1.33-.78c-.09-.16-.67.14-.48-.47.19-.61.77.11 1-.07a.392.392 0 00.14-.52m-1-32.3a39.223 39.223 0 00-26.42 10.94l4.48 4.48a33.11 33.11 0 0121.94-9.11V1.89m-27.67 12.18a39.212 39.212 0 00-10.83 26.41h6.31a33.09 33.09 0 019.09-22L30.815 14" fill="#009edb" fill-rule="nonzero"/></svg>